# xmcd
#
# Track frame offsets: 
#        150
#        15997
#        28164
#        54282
#        72011
#        91387
#        108742
#        121609
#        134545
#        153679
#        174940
#        190287
#
# Disc length: 2745 seconds
#
# Revision: 1
# Processed by: cddbd v1.5.2PL0 Copyright (c) Steve Scherf et al.
# Submitted via: ExactAudioCopy v1.1
#
DISCID=980ab70c
DTITLE=Дочь Монро и Кеннеди - Вне игры
DYEAR=2015
DGENRE=Indie Rock
TTITLE0=Песня - мечта
TTITLE1=Сон наоборот
TTITLE2=Чтобы
TTITLE3=Больно
TTITLE4=Блюз
TTITLE5=Романс
TTITLE6=Никогда
TTITLE7=Почтальон
TTITLE8=Джедай
TTITLE9=Эхо
TTITLE10=Театр
TTITLE11=Я знаю
EXTD=Barcode: 4620004369239\nRelease year: 2015\nRelease country: RU\n
EXTD=Release label: Отделение ВЫХОД\nRelease catalog#: В 391\nTotal ti
EXTD=me: 45:43\nwww.discogs.com/Дочь-Монро-Кеннеди-Вне-Игры/release/69
EXTD=39801
EXTT0=
EXTT1=
EXTT2=
EXTT3=
EXTT4=
EXTT5=
EXTT6=
EXTT7=
EXTT8=
EXTT9=
EXTT10=
EXTT11=
PLAYORDER=
